<?xml version="1.0" encoding="UTF-8"?>
<!DOCTYPE svg PUBLIC "-//W3C//DTD SVG 1.1//EN" "http://www.w3.org/Graphics/SVG/1.1/DTD/svg11.dtd">
<!-- Creator: CorelDRAW X7 -->
<svg xmlns="http://www.w3.org/2000/svg" xml:space="preserve" width="480px" height="480px" version="1.1" style="shape-rendering:geometricPrecision; text-rendering:geometricPrecision; image-rendering:optimizeQuality; fill-rule:evenodd; clip-rule:evenodd"
viewBox="0 0 480 480"
 xmlns:xlink="http://www.w3.org/1999/xlink">
 <defs>
  <style type="text/css">
   <![CDATA[
    .fil0 {fill:#FEFEFE}
    .fil1 {fill:#DCDDDD}
    .fil3 {fill:#059C3C}
    .fil5 {fill:#3E1179}
    .fil4 {fill:#3E117A}
    .fil6 {fill:#451A77}
    .fil2 {fill:#DA0323}
    .fil7 {fill:#332C2B;fill-rule:nonzero}
   ]]>
  </style>
 </defs>
 <g id="Layer_x0020_1">
  <metadata id="CorelCorpID_0Corel-Layer"/>
  <g id="_1525215400128">
   <circle class="fil0" cx="240" cy="240" r="188"/>
   <path class="fil1" d="M240 0c133,0 240,107 240,240 0,133 -107,240 -240,240 -133,0 -240,-107 -240,-240 0,-133 107,-240 240,-240zm0 56c102,0 184,82 184,184 0,102 -82,184 -184,184 -102,0 -184,-82 -184,-184 0,-102 82,-184 184,-184z"/>
   <path class="fil2" d="M172 115l0 26 130 0 0 -27 -64 -23 -66 24zm-29 73c32,4 61,13 90,26l0 -66 -90 0 0 40zm188 0c-32,4 -62,13 -90,26l0 -66 90 0 0 40z"/>
   <path class="fil3" d="M205 350c0,0 28,-37 30,-41 6,-8 9,-13 14,-22 2,-4 9,-22 12,-22 9,0 18,15 16,24 0,11 -21,28 -23,38 0,2 -1,5 0,8 1,6 11,13 19,13l3 0c45,-11 71,-74 93,-82 -106,-33 -162,7 -207,64 0,4 37,20 43,20zm-49 -23c25,-41 61,-70 116,-80 -10,-9 -21,-17 -33,-21 -21,11 -39,25 -54,41 -16,15 -29,33 -37,52 2,3 4,6 8,8zm-15 -13c18,-38 50,-67 90,-93 -41,-18 -84,-28 -130,-27 -8,44 5,84 40,120zm147 -69c29,-3 57,2 86,14 9,-22 9,-44 6,-65 -45,0 -90,10 -132,27 15,7 28,15 40,24z"/>
   <path class="fil4" d="M239 458c0,-37 18,-44 49,-66 17,-12 30,-24 45,-38 16,-15 24,-29 35,-47 6,-9 11,-16 17,-25 2,-3 18,-21 18,-22 0,-2 -2,-2 -3,-2l-5 0c-35,0 -64,96 -123,96l-3 0c-9,0 -22,-10 -22,-18 0,-12 5,-19 10,-26 4,-4 13,-17 13,-24l0 -2c0,-4 -4,-9 -8,-11 -1,13 -28,47 -36,58 -11,15 -31,39 -31,63 0,21 26,52 44,64z"/>
   <path class="fil5" d="M107 280c-5,-9 -2,-11 -12,-16 -7,-4 -12,-8 -21,-4 10,13 17,18 27,36 5,17 57,89 88,95 1,-13 6,-24 11,-34 -25,-5 -55,-26 -70,-44 -9,-10 -17,-21 -23,-33z"/>
   <path class="fil6" d="M246 444c11,-2 29,-23 30,-35 -16,7 -27,18 -30,35z"/>
   <path class="fil7" d="M98 411l15 -17 2 2 -14 17 -3 -2zm-5 -4l-2 -3 11 -3 4 -14 2 3 -3 13 -12 4zm-5 -5l-8 -7 2 -2 5 5 5 -5 -5 -5 2 -2 5 5 5 -6 -5 -5 2 -2 7 7 -15 17zm-16 -16l12 -15 -17 9 -3 -4 17 -15 2 2 -15 13 0 0 18 -9 2 2 -12 17 0 0 15 -13 2 2 -17 15 -4 -4zm-12 -16l-6 -8 2 -2 4 6 6 -4 -4 -5 2 -2 4 6 7 -5 -5 -6 3 -1 6 8 -19 13zm-12 -17l14 -15 0 0 -17 10 -1 -3 20 -11 2 4 -14 15 0 0 17 -10 2 3 -20 11 -3 -4zm-12 -25l2 -1 2 4 19 -8 1 3 -19 8 3 5 -3 1 -5 -12zm-2 -5l-4 -9 3 -1 2 6 7 -2 -3 -7 3 0 2 6 8 -3 -3 -7 2 -1 4 10 -21 8zm-7 -21l-1 -2c0,0 0,-1 0,-2 0,-2 1,-4 4,-4 2,-1 3,-1 4,-1 1,1 2,2 3,3l0 0c-1,-1 -1,-2 0,-2 0,-1 0,-1 1,-2 1,0 1,0 2,-1l3 0c1,-1 1,-1 2,-1 0,0 1,-1 2,-1l0 3 -1 1c0,0 -1,0 -1,0l-2 1 -2 1c-2,0 -3,1 -3,2 0,1 0,1 1,2l0 2 10 -3 1 3 -22 6 -1 -5zm3 2l7 -2 -1 -3c0,0 0,-1 -1,-1 0,-1 -1,-2 -1,-2 -1,0 -2,0 -3,1 -1,0 -2,0 -2,1 -1,1 0,2 0,3l1 3zm-7 -17l22 -5 1 3 -23 5 0 -3zm-2 -10l-1 -4 22 -9 0 3 -5 2 0 0 1 6 0 0 6 0 0 3 -23 -1zm15 -2l0 0 -1 -5 0 0 -12 5 0 0 13 0zm-18 -18l19 -7 0 0 -19 1 0 -3 22 -1 1 4 -19 8 0 0 19 -2 0 3 -22 2 -1 -5zm-1 -24l1 -5c0,-1 0,-2 0,-3 1,-1 1,-2 2,-2 1,-2 2,-2 3,-2 1,0 2,0 3,0l8 1c3,0 5,1 6,2 0,0 1,1 1,2 0,1 0,2 0,3l-1 6 -23 -2zm3 -3l18 2 0 -3c0,-2 0,-3 -1,-3 -1,-1 -2,-1 -4,-1l-7 -1c-2,0 -3,0 -4,0 -1,1 -1,2 -1,3l-1 3zm-1 -15l1 -11 3 1 -1 7 7 1 1 -7 3 1 -1 6 7 1 1 -7 3 0 -1 11 -23 -3zm18 -16l1 1c1,0 1,0 2,0 1,0 2,-1 3,-2 0,-1 0,-2 0,-2 0,-1 -1,-2 -3,-3 -1,0 -2,0 -3,1 0,0 -1,1 -2,1l-1 2c-1,1 -2,2 -2,2 -2,1 -3,1 -5,1 -2,-1 -4,-2 -4,-3 -1,-2 -1,-3 0,-5 0,-2 1,-3 2,-4 1,-1 3,-1 5,0l1 0 -1 3 -1 0 -1 0c-1,-1 -3,0 -3,2 0,2 0,3 2,4 2,0 3,0 4,-2 1,0 1,-1 2,-2 1,-1 2,-1 2,-2 2,-1 4,-1 6,-1 4,1 5,4 4,8 0,2 -1,3 -2,4 -1,1 -3,1 -4,1l-2 0 -1 -1 1 -3zm-10 -21l1 -4 23 1 -1 3 -5 0 0 0 -2 6 0 0 5 2 -1 3 -20 -11zm14 4l0 0 1 -4 0 0 -12 -2 0 0 11 6zm8 -12l1 -3 6 5 -1 2 -6 -4zm-9 -27c0,-1 1,-2 1,-2 0,-1 1,-2 2,-2 1,-1 3,0 5,1 4,2 5,4 4,8l-2 3 9 4 -1 3 -21 -10 3 -5zm1 3l7 3 1 -2c1,-1 1,-2 0,-3 0,0 -1,-1 -2,-2 -1,0 -2,0 -3,0 -1,0 -1,1 -2,2l-1 2zm4 -13l5 -9 2 1 -3 6 6 4 3 -6 3 1 -4 6 7 4 4 -6 2 1 -5 9 -20 -11zm12 -19l17 8 -13 -14 3 -5 19 14 -2 2 -16 -11 0 0 13 15 -1 3 -19 -8 0 0 16 11 -2 3 -18 -14 3 -4zm12 -16l4 -4c0,-1 1,-1 1,-2 3,-2 5,-1 7,1 2,1 2,2 3,3 0,1 -1,2 -1,3l0 0c1,-1 2,-2 3,-1 1,0 3,0 4,1 1,1 1,2 2,2 1,2 1,3 0,4 0,1 -1,2 -2,4l-4 4 -17 -15zm11 6l6 5 2 -2c1,-1 1,-2 1,-3 0,-1 0,-2 -2,-3 -1,-1 -3,-1 -4,0 0,0 -1,1 -1,1l-2 2zm-7 -6l5 4 2 -2c0,0 1,-1 1,-1 1,-1 0,-2 -2,-4 -1,-1 -3,-1 -5,1l-1 2zm11 -17l3 -3 20 13 -3 3 -4 -3 0 0 -4 4 0 0 2 4 -2 2 -12 -20zm10 12l0 0 4 -4 0 0 -10 -7 0 0 6 11zm5 -25l17 12 0 0 -12 -16 2 -1 14 18 -4 3 -16 -12 0 0 12 15 -3 2 -14 -18 4 -3zm25 -2l-1 -2 5 -3 6 9 -1 1c0,1 -1,1 -1,2 -1,0 -2,1 -3,1 -2,2 -4,2 -5,2 -1,-1 -3,-2 -4,-4l-4 -7c-2,-2 -2,-3 -3,-4 0,-2 1,-4 2,-5 0,0 1,-1 2,-2 2,-1 3,-1 5,-1 1,0 2,1 3,3l1 1 -3 1 0 0c0,0 0,-1 -1,-1 -1,-1 -2,-1 -4,0 -1,0 -2,1 -1,3 0,0 0,1 0,1 0,1 1,1 1,2l4 7c1,1 2,2 3,3 1,0 2,0 3,-1 1,0 1,0 1,-1l1 -1 -3 -6 -3 2zm3 -17l2 -2 8 13 1 2c1,2 3,2 4,1 2,-1 3,-2 2,-4 -1,-1 -1,-1 -1,-2l-8 -13 3 -2 8 14c0,1 1,2 1,2 0,1 1,2 0,3 0,2 -1,3 -3,4 -2,2 -4,2 -6,1 -1,0 -1,-1 -2,-1 0,-1 -1,-2 -2,-3l-7 -13zm22 -12l13 16 0 0 -8 -18 3 -1 9 20 -4 2 -14 -15 0 0 8 18 -2 1 -10 -21 5 -2zm18 -7l4 -1 12 19 -3 1 -3 -4 0 0 -5 2 0 0 0 5 -3 1 -2 -23zm4 14l0 0 5 -1 0 0 -6 -11 0 0 1 12zm16 -20l10 18 0 0 -5 -19 3 -1 5 22 -4 1 -11 -17 0 0 5 19 -3 0 -5 -22 5 -1zm22 -4l5 -1c1,0 2,0 3,0 1,0 2,0 3,1 1,0 2,1 2,3 0,1 1,1 1,2l1 9c0,2 0,4 -1,5 -1,1 -1,2 -2,2 -1,0 -2,0 -3,1l-6 0 -3 -22zm3 2l2 17 3 0c2,0 3,-1 3,-2 1,0 1,-2 1,-3l-1 -8c-1,-2 -1,-3 -1,-4 -1,0 -2,-1 -4,0l-3 0zm20 -4l5 0 5 22 -3 0 -1 -5 0 0 -6 0 0 0 -1 6 -3 0 4 -23zm0 15l0 0 5 0 0 0 -3 -12 0 0 -2 12zm15 -15l11 0 0 3 -8 -1 0 8 7 0 -1 3 -6 -1 -1 8 8 1 -1 2 -10 -1 1 -22zm21 2l2 0c1,0 1,0 2,0 2,1 3,3 3,6 -1,2 -1,3 -2,4 0,1 -2,1 -3,1l0 0c1,0 1,1 2,1 0,0 1,1 1,2 0,1 0,1 0,2l0 3c-1,1 -1,2 -1,2 1,1 1,1 1,2l-4 0 0 -2c0,0 0,-1 0,-1l1 -2 0 -3c0,-1 -1,-2 -2,-3 0,0 -1,0 -1,0l-3 0 -1 10 -3 0 3 -23 5 1zm-2 2l-1 7 2 0c1,0 1,0 2,0 1,0 1,0 2,-1 0,0 0,-1 0,-2 1,-1 0,-2 0,-3 -1,0 -2,-1 -3,-1l-2 0zm20 1l4 0 0 24 -3 -1 0 -5 0 0 -6 -2 0 0 -2 5 -3 0 10 -21zm-4 14l0 0 5 1 0 0 0 -12 0 0 -5 11zm19 -11l3 1 -3 9 6 2 3 -9 3 1 -7 22 -3 -1 3 -10 -6 -2 -3 10 -3 -1 7 -22zm37 14l-1 2 -5 -2 -8 19 -3 -2 8 -18 -5 -2 1 -3 13 6zm5 3l9 5 -1 2 -7 -4 -3 7 6 3 -2 2 -5 -3 -4 7 6 3 -1 3 -9 -5 11 -20zm18 10l1 1c1,1 1,1 2,2 2,1 2,3 0,6 -1,2 -2,2 -3,3 -1,0 -2,0 -4,-1l0 0c1,1 2,2 2,2 0,1 0,2 0,3 0,0 -1,1 -1,1l-1 3c-1,1 -1,1 -1,2 -1,0 -1,1 -1,2l-3 -2 1 -1c0,-1 0,-1 0,-2l1 -2 1 -1c1,-2 1,-3 0,-4 0,0 0,-1 -1,-1l-2 -1 -5 9 -3 -2 12 -19 5 2zm-3 1l-4 7 2 1c0,0 1,0 1,1 1,0 2,0 3,-1 0,0 1,0 1,-1 1,-2 1,-2 1,-3 -1,-1 -1,-2 -2,-2l-2 -2zm23 13l-2 2 -4 -3 -12 16 -3 -1 12 -17 -4 -3 2 -2 11 8zm5 6l-14 17 -3 -2 15 -17 2 2zm8 7l-9 18 0 0 14 -14 2 2 -16 17 -3 -4 9 -18 0 0 -14 14 -2 -2 16 -16 3 3zm5 25l2 -2 4 5 -8 7 -2 0c0,-1 0,-1 -1,-2 -1,0 -1,-1 -2,-2 -2,-2 -2,-3 -2,-5 0,-1 1,-3 3,-4l6 -6c2,-1 3,-2 4,-2 2,-1 3,-1 5,0 0,1 1,1 2,2 1,2 2,3 2,4 0,2 -1,3 -3,5l0 0 -2 -2 0 -1c0,0 1,0 1,0 1,-2 1,-3 0,-4 -1,-1 -2,-2 -3,-2 -1,1 -2,1 -2,1 -1,1 -1,1 -2,1l-6 6c-1,1 -2,2 -2,2 0,1 0,3 1,4 0,0 1,1 1,1l1 1 5 -5 -2 -2zm11 14l2 -1 4 5 -9 7 -1 -1c-1,-1 -1,-1 -2,-2 0,0 -1,-1 -2,-2 -1,-2 -2,-4 -1,-5 0,-2 1,-3 3,-5l7 -4c2,-2 3,-3 4,-3 2,0 3,0 5,1 0,1 1,2 2,2 1,2 1,4 1,5 0,1 -1,3 -3,4l0 0 -2 -2 0 0c1,-1 1,-1 1,-1 1,-1 2,-3 0,-4 0,-1 -1,-2 -3,-2 0,0 -1,1 -1,1 -1,0 -1,1 -2,1l-6 5c-2,1 -3,2 -3,2 -1,1 0,2 1,4 0,0 0,1 1,1l1 1 5 -4 -2 -3zm21 7l2 3 -17 17 -2 -3 4 -4 0 0 -3 -5 0 0 -5 2 -2 -3 23 -7zm-13 7l0 0 2 4 0 0 9 -8 0 0 -11 4zm20 6l1 3 -18 9 3 6 -2 1 -4 -9 20 -10zm-11 21l1 3 -7 0 -1 -2 7 -1zm23 7l2 6c0,1 0,1 0,2 1,1 1,2 0,3 0,1 -1,3 -2,3 -1,1 -2,1 -3,1l-8 3c-2,1 -4,1 -5,0 -1,0 -2,-1 -3,-2 0,0 0,-1 -1,-2l-2 -6 22 -8zm-1 4l-17 6 1 3c0,1 1,2 2,2 1,1 2,0 4,0l7 -3c2,0 3,-1 3,-1 1,-1 1,-2 0,-4l0 -3zm8 19l1 4 -21 10 -1 -3 5 -2 0 0 -2 -6 0 0 -5 0 -1 -3 24 0zm-15 3l0 0 1 5 0 0 11 -5 0 0 -12 0zm18 17l-19 8 0 0 20 -3 0 3 -22 4 -1 -5 18 -9 0 0 -19 3 0 -3 22 -3 1 5zm2 35l-2 0 0 -5 -21 0 0 -3 20 -1 0 -5 3 0 0 14zm0 11l-1 2c0,1 0,1 0,2 0,2 -2,3 -6,3 -1,0 -2,-1 -3,-1 -1,-1 -2,-2 -2,-4l0 0c0,1 0,2 -1,2 0,1 -1,1 -2,2 0,0 -1,0 -2,0l-2 0c-1,0 -2,0 -3,0 0,0 -1,0 -2,0l1 -3 1 0c0,-1 1,-1 2,-1l2 0 2 1c1,-1 2,-1 3,-2 0,-1 0,-1 0,-2l0 -2 -10 -1 0 -3 23 2 0 5zm-3 -2l-7 -1 0 2c0,1 0,2 0,2 0,1 0,2 1,2 1,1 1,1 3,1 1,0 2,0 2,-1 1,-1 1,-1 1,-3l0 -2zm1 20l-1 4 -23 2 0 -4 5 0 0 0 2 -6 0 0 -5 -2 0 -3 22 9zm-15 -3l0 0 -1 5 0 0 13 0 0 0 -12 -5zm11 22l-21 1 0 0 20 5 -1 3 -22 -6 1 -4 20 -2 0 0 -19 -4 1 -3 22 5 -1 5zm-20 12l-1 0c0,0 -1,0 -2,0 -1,-1 -2,0 -3,2 0,0 0,1 0,2 0,1 1,2 3,2 1,1 2,1 3,0 0,0 1,-1 1,-1l2 -2c1,-1 2,-1 2,-2 2,-1 4,-1 5,0 3,0 4,2 4,3 1,1 1,3 0,5 -1,2 -2,3 -3,4 -1,0 -3,0 -5,-1l0 0 1 -3 0 0 1 1c2,0 3,-1 4,-2 0,-2 0,-4 -2,-4 -2,-1 -3,0 -4,1 -1,0 -2,1 -3,2 0,1 -1,1 -2,2 -1,1 -3,1 -5,0 -4,-1 -6,-4 -4,-8 0,-2 1,-3 2,-4 2,-1 3,-1 5,0l2 0 0 0 -1 3zm7 25l-18 -4 15 11 -2 5 -21 -9 1 -3 18 8 0 0 -16 -12 1 -3 20 4 0 0 -18 -8 1 -3 21 9 -2 5zm-10 20l-20 -11 1 -2 20 11 -1 2zm-18 4l3 1 -4 6 -10 -6 1 -2c0,-1 0,-1 1,-2 0,-1 0,-2 1,-2 1,-2 3,-4 4,-4 2,0 3,0 5,2l7 4c2,1 4,2 4,3 1,2 2,3 1,5 0,1 -1,1 -1,2 -1,2 -3,3 -4,3 -1,1 -3,0 -5,-1l0 0 1 -3 1 1c0,0 1,0 1,0 1,1 3,0 4,-1 0,-1 1,-3 0,-4 0,0 -1,-1 -1,-1 -1,0 -1,-1 -2,-1l-7 -4c-1,-1 -2,-2 -3,-2 -1,0 -2,1 -3,2 0,1 0,1 -1,2l0 1 6 4 1 -3zm1 22l-1 1c-1,1 -1,1 -2,2 -1,1 -3,1 -6,-1 -1,-1 -2,-2 -3,-3 0,-1 0,-2 1,-4l0 0c-1,1 -1,2 -2,2 0,0 -1,0 -2,0 -1,-1 -1,-1 -2,-2l-2 -1c-1,-1 -2,-1 -2,-1 -1,0 -1,-1 -2,-1l2 -3 1 1c1,0 1,0 2,1l2 1 1 1c2,1 3,1 4,0 0,0 1,0 1,-1l1 -2 -8 -6 2 -2 18 13 -3 5zm-1 -4l-6 -4 -1 2c0,0 -1,1 -1,1 0,1 0,2 0,3 0,0 1,1 2,2 1,0 2,1 2,0 1,0 2,-1 3,-2l1 -2zm-11 18l-3 3 -20 -12 2 -2 5 3 0 0 4 -5 0 0 -3 -4 2 -2 13 19zm-11 -11l0 0 -3 4 0 0 11 6 0 0 -8 -10zm-11 12l-1 -1c0,-1 -1,-1 -1,-1 -2,-1 -3,-1 -4,0 -1,1 -1,1 -1,2 -1,1 0,2 1,3 1,1 1,2 2,1 1,0 2,0 3,0l2 -1c1,0 2,0 3,0 2,0 3,0 5,2 1,2 2,3 1,5 0,1 -1,2 -2,4 -2,1 -3,2 -4,2 -2,0 -3,-1 -5,-3l0 0 2 -2 1 0 0 1c2,1 3,1 4,0 2,-2 2,-3 0,-5 -1,-1 -2,-1 -3,-1 -1,0 -2,1 -3,1 -1,0 -2,1 -3,1 -2,0 -4,-1 -5,-2 -3,-3 -3,-7 0,-10 1,-1 3,-2 4,-2 2,0 3,1 4,2l2 1 0 1 -2 2zm-4 23l-14 -18 2 -2 15 18 -3 2z"/>
  </g>
 </g>
</svg>
